<svg xmlns="http://www.w3.org/2000/svg" viewBox="0 0 720 220" role="img" aria-labelledby="title desc">
  <title id="title">Autoservis Janov - navrh loga</title>
  <desc id="desc">Moderni horizontalni logo Autoservis Janov s linkou vozu a zelenym akcentem.</desc>
  <defs>
    <linearGradient id="greenLine" x1="92" x2="612" y1="74" y2="74" gradientUnits="userSpaceOnUse">
      <stop stop-color="#78BE20"/>
      <stop offset="1" stop-color="#0FA64A"/>
    </linearGradient>
    <filter id="softShadow" x="-10%" y="-20%" width="120%" height="140%" color-interpolation-filters="sRGB">
      <feDropShadow dx="0" dy="10" stdDeviation="12" flood-color="#0B1411" flood-opacity=".18"/>
    </filter>
  </defs>
  <rect width="720" height="220" rx="26" fill="#0B0F12"/>
  <g filter="url(#softShadow)">
    <path d="M95 96c58-6 111-9 157-9 70 0 136 5 201 13 51 6 96 8 135 3" fill="none" stroke="url(#greenLine)" stroke-width="12" stroke-linecap="round"/>
    <path d="M128 74c42-22 85-35 129-39 61-5 122 11 182 48" fill="none" stroke="#F7FBF9" stroke-width="10" stroke-linecap="round"/>
    <path d="M225 58c51-12 98-8 141 12" fill="none" stroke="#F7FBF9" stroke-width="7" stroke-linecap="round" opacity=".82"/>
  </g>
  <text x="94" y="152" fill="#FFFFFF" font-family="Inter, Arial, sans-serif" font-size="49" font-weight="760" letter-spacing="-1">AUTOSERVIS</text>
  <text x="402" y="152" fill="#28A745" font-family="Inter, Arial, sans-serif" font-size="49" font-weight="760" letter-spacing="-1">JANOV</text>
  <path d="M94 170h524" stroke="#28A745" stroke-width="3" stroke-linecap="round" opacity=".72"/>
</svg>
